#!OML:ASF X:\2005_08_12_Meinard\c3d\meinard.ASF
:FULLY-SPECIFIED
:DEGREES
1450
root 2.19293 16.4407 0.828144 -45.003 -41.4292 6.85167
lowerback 52.551 2.01057 0.383197
upperback 13.2708 1.21854 -1.069
thorax -5.99913 0.138218 -1.77795
lowerneck -13.4053 1.08866 -8.33512
upperneck -1.82347 2.49655 5.89021
head 1.59646 1.42356 3.59336
rclavicle 5.14852e-014 3.00165e-014
rhumerus -33.216 13.1635 -83.1543
rradius 78.8196
rwrist 4.344
rhand -1.92831 -11.461
rfingers 7.12502
rthumb 23.7421 -40.0144
lclavicle 5.14852e-014 3.00165e-014
lhumerus -31.8709 29.0114 71.7446
lradius 48.6704
lwrist -211.023
lhand -6.24132 0.436237
lfingers 7.12502
lthumb 19.6004 29.4682
rfemur -147.83 -179.347 196.198
rtibia 32.1869
rfoot 160.671 157.042
rtoes 1.60766
lfemur -223.676 157.118 -197.722
ltibia 96.4786
lfoot 9.0538 4.53239
ltoes 11.6576
1451
root 2.21326 16.4602 0.838012 -43.7729 -41.5893 6.38296
lowerback 51.9669 1.88907 0.486235
upperback 12.9919 1.17939 -1.00049
thorax -6.24971 0.130176 -1.73541
lowerneck -13.5615 1.19419 -8.09834
upperneck -1.67105 2.61398 5.71283
head 1.66854 1.47659 3.49762
rclavicle -9.17391e-014 5.12864e-014
rhumerus -33.7257 13.2406 -83.4162
rradius 78.904
rwrist 4.40985
rhand -1.8158 -11.5064
rfingers 7.12502
rthumb 23.8501 -40.0458
lclavicle -9.17391e-014 5.12864e-014
lhumerus -31.6363 28.5343 71.9373
lradius 48.651
lwrist -211.201
lhand -6.35606 0.332041
lfingers 7.12502
lthumb 19.49 29.3752
rfemur -148.791 -179.073 196.378
rtibia 32.1363
rfoot 160.629 157.343
rtoes 1.40879
lfemur -221.184 157.876 -197.069
ltibia 95.5747
lfoot 9.43174 4.57056
ltoes 13.1783
1452
root 2.23405 16.4709 0.851109 -42.5321 -41.7807 5.89426
lowerback 51.3555 1.76322 0.60958
upperback 12.7377 1.14117 -0.93288
thorax -6.46467 0.122404 -1.70383
lowerneck -13.6966 1.31293 -7.83846
upperneck -1.55997 2.74427 5.52643
head 1.7227 1.53576 3.39417
rclavicle 4.2043e-014 -4.09496e-014
rhumerus -34.1352 13.249 -83.6502
rradius 78.9384
rwrist 4.53505
rhand -1.70824 -11.4573
rfingers 7.12502
rthumb 23.9532 -39.9831
lclavicle 4.2043e-014 -4.09496e-014
lhumerus -31.3742 27.9418 72.1333
lradius 48.6101
lwrist -211.305
lhand -6.43528 0.265324
lfingers 7.12502
lthumb 19.4139 29.3162
rfemur -149.778 -178.809 196.586
rtibia 32.1342
rfoot 160.58 157.633
rtoes 1.32026
lfemur -218.769 158.746 -196.455
ltibia 94.4543
lfoot 9.93428 4.92728
ltoes 14.8146
1453
root 2.2564 16.4841 0.866081 -41.3747 -41.9903 5.47141
lowerback 50.777 1.66397 0.67289
upperback 12.4894 1.09882 -0.865034
thorax -6.67335 0.109834 -1.643
lowerneck -13.781 1.44704 -7.55407
upperneck -1.49556 2.88884 5.30648
head 1.75194 1.60079 3.27333
rclavicle 3.48867e-014 -5.62561e-014
rhumerus -34.4991 13.2985 -83.8737
rradius 78.9413
rwrist 4.68002
rhand -1.62285 -11.3382
rfingers 7.12502
rthumb 24.0351 -39.8532
lclavicle 3.48867e-014 -5.62561e-014
lhumerus -31.1418 27.3803 72.3133
lradius 48.5435
lwrist -211.449
lhand -6.5003 0.259619
lfingers 7.12502
lthumb 19.3514 29.3168
rfemur -150.763 -178.551 196.708
rtibia 32.208
rfoot 160.488 157.995
rtoes 1.23919
lfemur -216.281 159.775 -195.931
ltibia 93.0769
lfoot 10.3808 5.54085
ltoes 15.9803
1454
root 2.28018 16.5013 0.881033 -40.2315 -42.2161 5.05119
lowerback 50.2091 1.57713 0.712206
upperback 12.252 1.05716 -0.785589
thorax -6.86759 0.0957664 -1.55904
lowerneck -13.8454 1.59885 -7.26411
upperneck -1.44808 3.0548 5.08186
head 1.77128 1.67624 3.15079
rclavicle -4.19436e-014 -2.5842e-014
rhumerus -34.8022 13.3803 -84.0617
rradius 78.9417
rwrist 4.74703
rhand -1.57853 -11.2154
rfingers 7.12502
rthumb 24.0776 -39.7248
lclavicle -4.19436e-014 -2.5842e-014
lhumerus -30.9078 26.8215 72.498
lradius 48.4276
lwrist -211.568
lhand -6.52453 0.312285
lfingers 7.12502
lthumb 19.3281 29.3718
rfemur -151.777 -178.329 196.855
rtibia 32.3598
rfoot 160.379 158.351
rtoes 1.22558
lfemur -213.805 161.022 -195.488
ltibia 91.4868
lfoot 10.687 6.20392
ltoes 16.0133
